<svg width="71" height="40" viewBox="0 0 71 40" fill="none" xmlns="http://www.w3.org/2000/svg">
<path d="M29.999 31C35.9551 31 40.7941 26.1097 41 20C40.7941 13.8903 35.9551 9 29.999 9C24.0435 9 19.2032 13.8903 19 20C19.2025 26.1097 24.0429 31 29.999 31Z" fill="#8C8E97"/>
<path d="M29.5008 2C19.836 2 12 9.83523 12 19.5C12 29.164 19.8368 37 29.5008 37C39.1648 37 47.0008 29.164 47.0008 19.5C47.0008 9.83523 39.1648 2 29.5008 2ZM29.5 32.2273C22.4706 32.2273 16.7719 26.7219 16.7719 19.9288C16.7719 19.784 16.7918 19.6432 16.7966 19.5C16.7918 19.3568 16.7719 19.2152 16.7719 19.0713C16.7719 12.2781 22.4714 6.77273 29.5 6.77273C36.5294 6.77273 42.2273 12.2781 42.2273 19.0713C42.2273 19.2152 42.2106 19.3568 42.2066 19.5C42.2114 19.6432 42.2273 19.784 42.2273 19.9288C42.2265 26.7219 36.5294 32.2273 29.5 32.2273Z" fill="#8C8E97"/>
<path d="M57.0868 14.2146C57.169 14.2151 57.2504 14.232 57.326 14.2644C57.4016 14.2968 57.47 14.344 57.5271 14.4032C57.5843 14.4623 57.629 14.5324 57.6587 14.6091C57.6883 14.6858 57.7024 14.7677 57.7 14.8499L57.6558 17.5015C57.6553 17.5838 57.6384 17.6651 57.606 17.7408C57.5736 17.8164 57.5264 17.8848 57.4672 17.9419C57.408 17.999 57.338 18.0437 57.2613 18.0734C57.1846 18.1031 57.1027 18.1172 57.0205 18.1147C56.9382 18.1142 56.8569 18.0973 56.7813 18.0649C56.7057 18.0326 56.6373 17.9854 56.5801 17.9262C56.523 17.867 56.4783 17.797 56.4486 17.7203C56.4189 17.6436 56.4049 17.5617 56.4073 17.4795L56.4515 14.8278C56.4546 14.6623 56.5232 14.5048 56.6423 14.3898C56.7614 14.2749 56.9213 14.2119 57.0868 14.2146V14.2146ZM60.3074 14.8389V25.4455C60.3074 26.5502 59.8686 27.6096 59.0874 28.3908C58.3063 29.1719 57.2468 29.6107 56.1421 29.6107C55.0374 29.6107 53.978 29.1719 53.1968 28.3908C52.4157 27.6096 51.9768 26.5502 51.9768 25.4455V14.8389C51.9768 13.7341 52.4157 12.6747 53.1968 11.8935C53.978 11.1124 55.0374 10.6736 56.1421 10.6736C57.2468 10.6736 58.3063 11.1124 59.0874 11.8935C59.8686 12.6747 60.3074 13.7341 60.3074 14.8389V14.8389ZM56.1421 11.9331C55.7597 11.93 55.3805 12.0031 55.0265 12.148C54.6726 12.293 54.3511 12.5069 54.0806 12.7773C53.8102 13.0478 53.5963 13.3693 53.4513 13.7233C53.3064 14.0772 53.2333 14.4564 53.2364 14.8389L53.2308 19.5179L59.0534 19.5179L59.0479 14.8389C59.0489 14.457 58.9744 14.0787 58.8287 13.7257C58.683 13.3727 58.469 13.052 58.199 12.782C57.929 12.512 57.6082 12.298 57.2553 12.1523C56.9023 12.0066 56.524 11.9321 56.1421 11.9331V11.9331Z" fill="#8C8E97"/>
<path d="M1.18498 0.336829C1.37695 -0.415869 1.7569 0.32803 1.7569 0.32803C1.7569 0.32803 1.88968 8.11897 2.75357 8.20376C3.61745 8.28855 2.95194 0.187249 3.9742 0.0320703C4.92447 -0.119109 4.38215 8.33254 5.24763 8.24695C6.10991 8.15576 6.25549 0.368025 6.25549 0.368025C6.25549 0.368025 6.63944 -0.375074 6.82901 0.372024C9.17109 9.57877 7.27615 13.3423 7.27615 13.3423C7.27615 13.3423 6.95619 14.1333 6.1963 14.1373C6.12511 14.1333 6.1787 36.0032 6.1739 38.9436C6.1755 40.373 1.7745 40.329 1.7769 38.906C1.7801 35.9656 1.86569 14.0982 1.7969 14.0998C1.0346 14.0998 0.715445 13.3095 0.715445 13.3095C0.715445 13.3095 -1.1723 9.54837 1.18498 0.336829Z" fill="#8C8E97"/>
</svg>
