<svg width="69" height="40" viewBox="0 0 69 40" fill="none" xmlns="http://www.w3.org/2000/svg">
<path d="M40.999 31C46.9551 31 51.7941 26.1097 52 20C51.7941 13.8903 46.9551 9 40.999 9C35.0435 9 30.2032 13.8903 30 20C30.2025 26.1097 35.0429 31 40.999 31Z" fill="#8C8E97"/>
<path d="M40.5008 2C30.836 2 23 9.83523 23 19.5C23 29.164 30.8368 37 40.5008 37C50.1648 37 58.0008 29.164 58.0008 19.5C58.0008 9.83523 50.1648 2 40.5008 2ZM40.5 32.2273C33.4706 32.2273 27.7719 26.7219 27.7719 19.9288C27.7719 19.784 27.7918 19.6432 27.7966 19.5C27.7918 19.3568 27.7719 19.2152 27.7719 19.0713C27.7719 12.2781 33.4714 6.77273 40.5 6.77273C47.5294 6.77273 53.2273 12.2781 53.2273 19.0713C53.2273 19.2152 53.2106 19.3568 53.2066 19.5C53.2114 19.6432 53.2273 19.784 53.2273 19.9288C53.2265 26.7219 47.5294 32.2273 40.5 32.2273Z" fill="#8C8E97"/>
<g clip-path="url(#clip0_22_5)">
<path d="M15.0868 14.2145C15.169 14.215 15.2504 14.232 15.326 14.2644C15.4016 14.2967 15.47 14.3439 15.5271 14.4031C15.5843 14.4623 15.629 14.5323 15.6587 14.609C15.6883 14.6857 15.7024 14.7676 15.7 14.8498L15.6558 17.5015C15.6553 17.5837 15.6384 17.6651 15.606 17.7407C15.5736 17.8163 15.5264 17.8847 15.4672 17.9418C15.408 17.999 15.338 18.0437 15.2613 18.0734C15.1846 18.103 15.1027 18.1171 15.0205 18.1147C14.9382 18.1142 14.8569 18.0972 14.7813 18.0649C14.7057 18.0325 14.6373 17.9853 14.5801 17.9261C14.523 17.8669 14.4783 17.7969 14.4486 17.7202C14.4189 17.6435 14.4049 17.5616 14.4073 17.4794L14.4515 14.8277C14.4546 14.6622 14.5232 14.5047 14.6423 14.3898C14.7614 14.2748 14.9213 14.2118 15.0868 14.2145V14.2145ZM18.3074 14.8388V25.4454C18.3074 26.5501 17.8686 27.6096 17.0874 28.3907C16.3063 29.1718 15.2468 29.6107 14.1421 29.6107C13.0374 29.6107 11.978 29.1718 11.1968 28.3907C10.4157 27.6096 9.97683 26.5501 9.97683 25.4454V14.8388C9.97683 13.7341 10.4157 12.6746 11.1968 11.8935C11.978 11.1123 13.0374 10.6735 14.1421 10.6735C15.2468 10.6735 16.3063 11.1123 17.0874 11.8935C17.8686 12.6746 18.3074 13.7341 18.3074 14.8388V14.8388ZM14.1421 11.933C13.7597 11.93 13.3805 12.003 13.0265 12.148C12.6726 12.2929 12.3511 12.5069 12.0806 12.7773C11.8102 13.0477 11.5963 13.3693 11.4513 13.7232C11.3064 14.0771 11.2333 14.4563 11.2364 14.8388L11.2308 19.5178L17.0534 19.5178L17.0479 14.8388C17.0489 14.4569 16.9744 14.0786 16.8287 13.7257C16.683 13.3727 16.469 13.052 16.199 12.7819C15.929 12.5119 15.6082 12.2979 15.2553 12.1522C14.9023 12.0066 14.524 11.9321 14.1421 11.933V11.933Z" fill="#8C8E97"/>
</g>
<path d="M62.185 0.336829C62.377 -0.415869 62.7569 0.32803 62.7569 0.32803C62.7569 0.32803 62.8897 8.11897 63.7536 8.20376C64.6174 8.28855 63.9519 0.187249 64.9742 0.0320703C65.9245 -0.119109 65.3821 8.33254 66.2476 8.24695C67.1099 8.15576 67.2555 0.368025 67.2555 0.368025C67.2555 0.368025 67.6394 -0.375074 67.829 0.372024C70.1711 9.57877 68.2762 13.3423 68.2762 13.3423C68.2762 13.3423 67.9562 14.1333 67.1963 14.1373C67.1251 14.1333 67.1787 36.0032 67.1739 38.9436C67.1755 40.373 62.7745 40.329 62.7769 38.906C62.7801 35.9656 62.8657 14.0982 62.7969 14.0998C62.0346 14.0998 61.7154 13.3095 61.7154 13.3095C61.7154 13.3095 59.8277 9.54837 62.185 0.336829Z" fill="#8C8E97"/>
<defs>
<clipPath id="clip0_22_5">
<rect width="20" height="20" fill="white" transform="translate(0 20.1421) rotate(-45)"/>
</clipPath>
</defs>
</svg>
