<svg width="61" height="40" viewBox="0 0 61 40" fill="none" xmlns="http://www.w3.org/2000/svg">
<path d="M43.999 31C49.9551 31 54.7941 26.1097 55 20C54.7941 13.8903 49.9551 9 43.999 9C38.0435 9 33.2032 13.8903 33 20C33.2025 26.1097 38.0429 31 43.999 31Z" fill="#695CD4"/>
<path d="M43.5008 2C33.836 2 26 9.83523 26 19.5C26 29.164 33.8368 37 43.5008 37C53.1648 37 61.0008 29.164 61.0008 19.5C61.0008 9.83523 53.1648 2 43.5008 2ZM43.5 32.2273C36.4706 32.2273 30.7719 26.7219 30.7719 19.9288C30.7719 19.784 30.7918 19.6432 30.7966 19.5C30.7918 19.3568 30.7719 19.2152 30.7719 19.0713C30.7719 12.2781 36.4714 6.77273 43.5 6.77273C50.5294 6.77273 56.2273 12.2781 56.2273 19.0713C56.2273 19.2152 56.2106 19.3568 56.2066 19.5C56.2114 19.6432 56.2273 19.784 56.2273 19.9288C56.2265 26.7219 50.5294 32.2273 43.5 32.2273Z" fill="#695CD4"/>
<g clip-path="url(#clip0_23_25)">
<path d="M17.0868 14.2145C17.169 14.215 17.2504 14.232 17.326 14.2644C17.4016 14.2967 17.47 14.3439 17.5271 14.4031C17.5843 14.4623 17.629 14.5323 17.6587 14.609C17.6883 14.6857 17.7024 14.7676 17.7 14.8498L17.6558 17.5015C17.6553 17.5837 17.6383 17.6651 17.606 17.7407C17.5736 17.8163 17.5264 17.8847 17.4672 17.9418C17.408 17.999 17.338 18.0437 17.2613 18.0734C17.1846 18.103 17.1027 18.1171 17.0205 18.1147C16.9382 18.1142 16.8569 18.0972 16.7813 18.0649C16.7057 18.0325 16.6373 17.9853 16.5801 17.9261C16.523 17.8669 16.4783 17.7969 16.4486 17.7202C16.4189 17.6435 16.4049 17.5616 16.4073 17.4794L16.4515 14.8277C16.4546 14.6622 16.5232 14.5047 16.6423 14.3898C16.7614 14.2748 16.9213 14.2118 17.0868 14.2145V14.2145ZM20.3074 14.8388V25.4454C20.3074 26.5501 19.8686 27.6096 19.0874 28.3907C18.3063 29.1718 17.2468 29.6107 16.1421 29.6107C15.0374 29.6107 13.978 29.1718 13.1968 28.3907C12.4157 27.6096 11.9768 26.5501 11.9768 25.4454V14.8388C11.9768 13.7341 12.4157 12.6746 13.1968 11.8935C13.978 11.1123 15.0374 10.6735 16.1421 10.6735C17.2468 10.6735 18.3063 11.1123 19.0874 11.8935C19.8686 12.6746 20.3074 13.7341 20.3074 14.8388V14.8388ZM16.1421 11.933C15.7597 11.93 15.3805 12.003 15.0265 12.148C14.6726 12.2929 14.3511 12.5069 14.0806 12.7773C13.8102 13.0477 13.5963 13.3693 13.4513 13.7232C13.3064 14.0771 13.2333 14.4563 13.2364 14.8388L13.2308 19.5178L19.0534 19.5178L19.0479 14.8388C19.0489 14.4569 18.9744 14.0786 18.8287 13.7257C18.683 13.3727 18.469 13.052 18.199 12.7819C17.929 12.5119 17.6082 12.2979 17.2553 12.1522C16.9023 12.0066 16.524 11.9321 16.1421 11.933V11.933Z" fill="#695CD4"/>
</g>
<path d="M1.18498 0.336829C1.37695 -0.415869 1.7569 0.32803 1.7569 0.32803C1.7569 0.32803 1.88968 8.11897 2.75357 8.20376C3.61745 8.28855 2.95194 0.187249 3.9742 0.0320703C4.92447 -0.119109 4.38215 8.33254 5.24763 8.24695C6.10991 8.15576 6.25549 0.368025 6.25549 0.368025C6.25549 0.368025 6.63944 -0.375074 6.82901 0.372024C9.17109 9.57877 7.27615 13.3423 7.27615 13.3423C7.27615 13.3423 6.95619 14.1333 6.1963 14.1373C6.12511 14.1333 6.1787 36.0032 6.1739 38.9436C6.1755 40.373 1.7745 40.329 1.7769 38.906C1.7801 35.9656 1.86569 14.0982 1.7969 14.0998C1.0346 14.0998 0.715445 13.3095 0.715445 13.3095C0.715445 13.3095 -1.1723 9.54837 1.18498 0.336829Z" fill="#695CD4"/>
<defs>
<clipPath id="clip0_23_25">
<rect width="20" height="20" fill="white" transform="translate(2 20.1421) rotate(-45)"/>
</clipPath>
</defs>
</svg>
