<svg width="20" height="20" viewBox="0 0 20 18" fill="none" xmlns="http://www.w3.org/2000/svg">
<path d="M1.1875 6H2.5C2.60313 6 2.6875 5.91563 2.6875 5.8125V1.6875H6.8125C6.91563 1.6875 7 1.60313 7 1.5V0.1875C7 0.084375 6.91563 0 6.8125 0H2.59375C1.7125 0 1 0.7125 1 1.59375V5.8125C1 5.91563 1.08437 6 1.1875 6ZM13.1875 1.6875H17.3125V5.8125C17.3125 5.91563 17.3969 6 17.5 6H18.8125C18.9156 6 19 5.91563 19 5.8125V1.59375C19 0.7125 18.2875 0 17.4062 0H13.1875C13.0844 0 13 0.084375 13 0.1875V1.5C13 1.60313 13.0844 1.6875 13.1875 1.6875ZM6.8125 16.3125H2.6875V12.1875C2.6875 12.0844 2.60313 12 2.5 12H1.1875C1.08437 12 1 12.0844 1 12.1875V16.4062C1 17.2875 1.7125 18 2.59375 18H6.8125C6.91563 18 7 17.9156 7 17.8125V16.5C7 16.3969 6.91563 16.3125 6.8125 16.3125ZM18.8125 12H17.5C17.3969 12 17.3125 12.0844 17.3125 12.1875V16.3125H13.1875C13.0844 16.3125 13 16.3969 13 16.5V17.8125C13 17.9156 13.0844 18 13.1875 18H17.4062C18.2875 18 19 17.2875 19 16.4062V12.1875C19 12.0844 18.9156 12 18.8125 12ZM19.1875 8.15625H0.8125C0.709375 8.15625 0.625 8.24062 0.625 8.34375V9.65625C0.625 9.75938 0.709375 9.84375 0.8125 9.84375H19.1875C19.2906 9.84375 19.375 9.75938 19.375 9.65625V8.34375C19.375 8.24062 19.2906 8.15625 19.1875 8.15625Z" fill="#8C8E97"/>
</svg>
